<svg
                xmlns="http://www.w3.org/2000/svg"
                width="58"
                height="58"
                viewBox="0 0 58 58"
                fill="none"
                
              >
                <path
                  d="M19.3996 46.7015C19.3996 46.9414 19.1306 47.1333 18.7915 47.1333C18.4056 47.1692 18.1367 46.9774 18.1367 46.7015C18.1367 46.4616 18.4056 46.2698 18.7448 46.2698C19.0956 46.2338 19.3996 46.4257 19.3996 46.7015ZM15.7629 46.1618C15.681 46.4017 15.9149 46.6775 16.2657 46.7495C16.5698 46.8694 16.9206 46.7495 16.9907 46.5096C17.0609 46.2698 16.8387 45.9939 16.4879 45.886C16.1839 45.802 15.8448 45.922 15.7629 46.1618ZM20.9315 45.9579C20.5923 46.0419 20.3585 46.2698 20.3935 46.5456C20.4286 46.7855 20.7327 46.9414 21.0835 46.8574C21.4226 46.7735 21.6565 46.5456 21.6214 46.3057C21.5863 46.0779 21.2706 45.922 20.9315 45.9579ZM28.6258 0C12.4069 0 0 12.6288 0 29.2634C0 42.5639 8.1621 53.9454 19.8206 57.9511C21.3173 58.227 21.8435 57.2795 21.8435 56.5C21.8435 55.7564 21.8085 51.6547 21.8085 49.1361C21.8085 49.1361 13.623 50.9351 11.904 45.5622C11.904 45.5622 10.571 42.0721 8.65323 41.1726C8.65323 41.1726 5.9754 39.2897 8.84032 39.3257C8.84032 39.3257 11.752 39.5656 13.354 42.4199C15.9149 47.0493 20.2065 45.7181 21.8786 44.9265C22.1476 43.0076 22.9077 41.6764 23.7496 40.8848C17.2129 40.1412 10.6177 39.1698 10.6177 27.6323C10.6177 24.3342 11.5065 22.6791 13.3774 20.5683C13.0734 19.7888 12.0794 16.5746 13.6815 12.425C16.1254 11.6454 21.75 15.6631 21.75 15.6631C24.0887 14.9915 26.6028 14.6437 29.0935 14.6437C31.5843 14.6437 34.0984 14.9915 36.4371 15.6631C36.4371 15.6631 42.0617 11.6334 44.5056 12.425C46.1077 16.5866 45.1137 19.7888 44.8097 20.5683C46.6806 22.6911 47.8266 24.3462 47.8266 27.6323C47.8266 39.2058 40.9391 40.1292 34.4024 40.8848C35.4782 41.8323 36.3903 43.6313 36.3903 46.4497C36.3903 50.4914 36.3552 55.4925 36.3552 56.476C36.3552 57.2555 36.8931 58.203 38.3782 57.9271C50.0718 53.9454 58 42.5639 58 29.2634C58 12.6288 44.8448 0 28.6258 0ZM11.3661 41.3645C11.2141 41.4845 11.2492 41.7603 11.448 41.9882C11.6351 42.1801 11.904 42.264 12.056 42.1081C12.2081 41.9882 12.173 41.7123 11.9742 41.4845C11.7871 41.2926 11.5181 41.2086 11.3661 41.3645ZM10.1032 40.3931C10.0214 40.549 10.1383 40.7409 10.3722 40.8608C10.5593 40.9808 10.7931 40.9448 10.875 40.7769C10.9569 40.621 10.8399 40.4291 10.606 40.3091C10.3722 40.2372 10.1851 40.2732 10.1032 40.3931ZM13.8919 44.6627C13.7048 44.8186 13.775 45.1784 14.044 45.4062C14.3129 45.6821 14.652 45.7181 14.804 45.5262C14.956 45.3703 14.8859 45.0105 14.652 44.7826C14.3948 44.5068 14.044 44.4708 13.8919 44.6627ZM12.5589 42.8997C12.3718 43.0196 12.3718 43.3314 12.5589 43.6073C12.746 43.8831 13.0617 44.003 13.2137 43.8831C13.4008 43.7272 13.4008 43.4154 13.2137 43.1395C13.05 42.8637 12.746 42.7438 12.5589 42.8997Z"
                  fill="black"
                />
              </svg>