<svg width="50" height="129" viewBox="0 0 50 129" fill="none" xmlns="http://www.w3.org/2000/svg">
<rect width="50" height="129" fill="#B7DE1B"/>
<path d="M21.6953 99.3636C21.2633 99.4879 20.8815 99.6625 20.5501 99.8874C20.2127 100.112 19.9286 100.388 19.6978 100.713C19.4611 101.033 19.2805 101.4 19.1562 101.814C19.032 102.222 18.9698 102.675 18.9698 103.172C18.9698 104.101 19.2006 104.918 19.6623 105.623C20.1239 106.321 20.7957 106.865 21.6776 107.256C22.5535 107.647 23.6248 107.842 24.8913 107.842C26.1579 107.842 27.2351 107.65 28.1229 107.265C29.0107 106.88 29.6883 106.336 30.1559 105.631C30.6175 104.927 30.8484 104.096 30.8484 103.137C30.8484 102.267 30.6945 101.524 30.3867 100.908C30.073 100.287 29.6321 99.8134 29.0639 99.4879C28.4957 99.1565 27.824 98.9908 27.0487 98.9908L27.1641 98.2095V102.897H24.2699V95.2887H26.5604C28.1584 95.2887 29.5315 95.6261 30.6797 96.3008C31.822 96.9755 32.7038 97.9047 33.3253 99.0884C33.9408 100.272 34.2486 101.627 34.2486 103.154C34.2486 104.859 33.8728 106.356 33.1211 107.647C32.3635 108.937 31.2893 109.943 29.8984 110.665C28.5017 111.381 26.8445 111.739 24.9268 111.739C23.4531 111.739 22.1392 111.526 20.9851 111.1C19.825 110.668 18.8426 110.064 18.0376 109.289C17.2327 108.514 16.6201 107.611 16.1999 106.581C15.7797 105.551 15.5696 104.436 15.5696 103.234C15.5696 102.205 15.7205 101.246 16.0224 100.358C16.3183 99.4702 16.7385 98.683 17.283 97.9964C17.8275 97.304 18.4756 96.7388 19.2273 96.3008C19.973 95.8628 20.7957 95.5817 21.6953 95.4574V99.3636ZM15.8182 88.5571H34V92.4012H15.8182L15.8182 88.5571ZM18.9876 86.0868H15.8182V71.1543H18.9876L18.9876 76.7207H34V80.5204H18.9876V86.0868ZM34 68.6951H15.8182L15.8182 64.851H23.32V57.0474H15.8182V53.2122H34V57.0474H26.4893L26.4893 64.851H34V68.6951ZM15.8182 38.8123V34.9682H27.6257C28.9515 34.9682 30.1115 35.2849 31.1058 35.9181C32.1001 36.5455 32.8755 37.4244 33.4318 38.5549C33.9822 39.6853 34.2575 41.0022 34.2575 42.5055C34.2575 44.0147 33.9822 45.3346 33.4318 46.465C32.8755 47.5955 32.1001 48.4744 31.1058 49.1017C30.1115 49.7291 28.9515 50.0428 27.6257 50.0428H15.8182V46.1987H27.2972C27.9897 46.1987 28.6052 46.0478 29.1438 45.7459C29.6824 45.4382 30.1056 45.0061 30.4134 44.4498C30.7211 43.8934 30.875 43.2453 30.875 42.5055C30.875 41.7598 30.7211 41.1117 30.4134 40.5613C30.1056 40.0049 29.6824 39.5758 29.1438 39.274C28.6052 38.9662 27.9897 38.8123 27.2972 38.8123H15.8182ZM34 31.8055H15.8182L15.8182 24.5257C15.8182 23.1881 16.0165 22.0724 16.413 21.1787C16.8095 20.285 17.36 19.6133 18.0643 19.1634C18.7627 18.7136 19.5676 18.4887 20.479 18.4887C21.1893 18.4887 21.8137 18.6308 22.3523 18.9149C22.8849 19.199 23.3229 19.5896 23.6662 20.0867C24.0036 20.578 24.2433 21.1402 24.3853 21.7735H24.5629C24.5924 21.0811 24.7878 20.433 25.1488 19.8293C25.5098 19.2197 26.0159 18.7255 26.6669 18.3467C27.312 17.9679 28.0814 17.7785 28.9751 17.7785C29.9399 17.7785 30.801 18.0182 31.5586 18.4976C32.3103 18.9711 32.9051 19.6724 33.343 20.6017C33.781 21.5309 34 22.6761 34 24.0374L34 31.8055ZM30.8572 27.9614V24.8275C30.8572 23.7562 30.6531 22.975 30.2447 22.4838C29.8304 21.9925 29.2799 21.7469 28.5934 21.7469C28.0903 21.7469 27.6464 21.8682 27.2617 22.1109C26.877 22.3535 26.5752 22.6998 26.3562 23.1496C26.1372 23.5935 26.0277 24.1232 26.0277 24.7387V27.9614H30.8572ZM23.4265 27.9614V25.1116C23.4265 24.5848 23.3348 24.1173 23.1513 23.7089C22.9619 23.2946 22.6955 22.9691 22.3523 22.7323C22.009 22.4897 21.5977 22.3683 21.1183 22.3683C20.4613 22.3683 19.9316 22.6021 19.5291 23.0697C19.1267 23.5313 18.9254 24.1883 18.9254 25.0406V27.9614H23.4265Z" fill="black"/>
</svg>
