<svg width="50" height="148" viewBox="0 0 50 148" fill="none" xmlns="http://www.w3.org/2000/svg">
<rect width="50" height="148" fill="#B7DE1B"/>
<path d="M34 130.42H15.8182V126.576H30.8306V118.781H34V130.42ZM15.8182 112.391H34V116.235H15.8182V112.391ZM15.8182 94.0206H34V97.3409L22.5565 105.251V105.384H34V109.228H15.8182V105.855L27.2528 98.0067V97.8469H15.8182V94.0206ZM34 90.8445H15.8182V87.0004H23.8349V86.7607L15.8182 80.2178L15.8182 75.6102L23.9592 82.3573L34 75.5303V80.129L26.5249 85.1095L28.8331 87.0004H34V90.8445ZM34 73.6082H15.8182V61.3568H18.9876V69.7641H23.32V61.9871H26.4893V69.7641H30.8306V61.3213H34V73.6082ZM34 51.8553V58.3006H15.8182L15.8182 51.802C15.8182 49.9732 16.1822 48.3989 16.9102 47.079C17.6322 45.7592 18.6709 44.7441 20.0263 44.0339C21.3816 43.3178 23.0033 42.9597 24.8913 42.9597C26.7853 42.9597 28.4129 43.3178 29.7741 44.0339C31.1354 44.7441 32.18 45.7651 32.908 47.0968C33.636 48.4225 34 50.0087 34 51.8553ZM30.7063 54.4565V52.0151C30.7063 50.8787 30.5051 49.9229 30.1026 49.1475C29.6942 48.3663 29.0639 47.7804 28.2116 47.3897C27.3535 46.9932 26.2467 46.7949 24.8913 46.7949C23.5478 46.7949 22.4499 46.9932 21.5977 47.3897C20.7454 47.7804 20.118 48.3633 19.7156 49.1387C19.3131 49.914 19.1119 50.8699 19.1119 52.0062V54.4565H30.7063ZM15.8182 36.268H34V40.1121H15.8182V36.268ZM15.8182 17.8975H34V21.2179L22.5565 29.128V29.2612H34V33.1053H15.8182V29.7317L27.2528 21.8837V21.7239H15.8182L15.8182 17.8975Z" fill="black"/>
</svg>
