<svg xmlns="http://www.w3.org/2000/svg" width="58" height="45" viewBox="0 0 58 45" fill="none">
<path d="M56.9012 14.8594C57.343 14.4961 58 14.8359 58 15.4102V39.375C58 42.4805 55.5645 45 52.5625 45H5.4375C2.43555 45 0 42.4805 0 39.375V15.4219C0 14.8359 0.645703 14.5078 1.09883 14.8711C3.63633 16.9102 7.00078 19.5 18.5555 28.1836C20.9457 29.9883 24.9785 33.7852 29 33.7617C33.0441 33.7969 37.1562 29.918 39.4559 28.1836C51.0105 19.5 54.3637 16.8984 56.9012 14.8594ZM29 30C31.6281 30.0469 35.4117 26.5781 37.3148 25.1484C52.3473 13.8633 53.4914 12.8789 56.9578 10.0664C57.6148 9.53906 58 8.71875 58 7.85156V5.625C58 2.51953 55.5645 0 52.5625 0H5.4375C2.43555 0 0 2.51953 0 5.625V7.85156C0 8.71875 0.385156 9.52734 1.04219 10.0664C4.50859 12.8672 5.65274 13.8633 20.6852 25.1484C22.5883 26.5781 26.3719 30.0469 29 30Z" fill="black"/>
</svg>