<svg width="50" height="95" viewBox="0 0 50 95" fill="none" xmlns="http://www.w3.org/2000/svg">
<rect width="50" height="95" fill="#B7DE1B"/>
<path d="M15.8182 77.4197V72.679L28.0341 67.6719V67.4588L15.8182 62.4517L15.8182 57.7109H34V61.4396H22.1658V61.5906L33.9112 66.2958V68.8349L22.1214 73.5401V73.6911H34V77.4197H15.8182ZM34 51.4099V55.5292L15.8182 49.2526V44.2987L34 38.031V42.1503L19.973 46.7046V46.8467L34 51.4099ZM26.8533 51.6673V41.9372H29.854V51.6673H26.8533ZM15.8182 31.9985H34V35.8426H15.8182L15.8182 31.9985ZM34 28.8358H15.8182L15.8182 24.9917H30.8306V17.1969H34V28.8358Z" fill="black"/>
</svg>
